<?xml version="1.0" encoding="UTF-8"?>
<svg id="a" data-name="Layer 1" xmlns="http://www.w3.org/2000/svg" width="903.478" height="354.69" viewBox="0 0 903.478 354.69">
  <polygon points="903.478 306.02 457.53 306.02 457.53 275.925 873.383 275.925 873.383 79.03 903.478 79.03 903.478 306.02" fill="#faf7f2"/>
  <g>
    <path d="m522.619,41.823c3.456,0,6.4,2.816,6.4,6.4,0,1.664,1.408,3.2,3.072,3.2,3.456,0,6.4,2.816,6.4,6.4v48.002c0,3.584-2.944,6.4-6.4,6.4-1.792,0-3.072,1.536-3.072,3.2s1.408,3.2,3.072,3.2c3.456,0,6.4,2.816,6.4,6.4s-2.944,6.4-6.4,6.4c-3.584,0-6.4-2.816-6.4-6.4,0-1.792-1.28-3.2-3.072-3.2s-3.072,1.536-3.072,3.2c0,3.584-2.943,6.4-6.4,6.4h-9.472c-3.585,0-6.4-2.816-6.4-6.4,0-1.792-1.28-3.2-3.072-3.2-3.584,0-6.4-2.816-6.4-6.4v-57.603c0-3.584,2.816-6.4,6.4-6.4,1.664,0,3.072-1.536,3.072-3.2,0-3.584,2.815-6.4,6.4-6.4h18.944Zm-3.072,64.003c0,1.664,1.408,3.2,3.072,3.2s3.072-1.536,3.072-3.2v-48.002c0-1.792-1.28-3.2-3.072-3.2h-18.944c-1.792,0-3.072,1.536-3.072,3.2v57.603c0,1.665,1.408,3.2,3.072,3.2h9.472c1.664,0,3.072-1.536,3.072-3.2,0-1.792-1.279-3.2-3.072-3.2-3.584,0-6.399-2.816-6.399-6.4s2.815-6.4,6.399-6.4c3.457,0,6.4,2.816,6.4,6.4Z" fill="#faf7f2"/>
    <path d="m577.406,48.223v67.203c0,1.665,1.408,3.2,3.072,3.2h18.944c1.664,0,3.072-1.536,3.072-3.2V48.223c0-3.584,2.816-6.4,6.4-6.4,3.456,0,6.4,2.816,6.4,6.4v67.203c0,3.584-2.944,6.4-6.4,6.4-1.792,0-3.072,1.536-3.072,3.2,0,3.584-2.944,6.4-6.4,6.4h-18.944c-3.585,0-6.4-2.816-6.4-6.4,0-1.792-1.28-3.2-3.072-3.2-3.584,0-6.4-2.816-6.4-6.4V48.223c0-3.584,2.816-6.4,6.4-6.4s6.4,2.816,6.4,6.4Z" fill="#faf7f2"/>
    <path d="m685.699,41.823c3.456,0,6.4,2.816,6.4,6.4s-2.944,6.4-6.4,6.4h-28.417c-1.921,0-3.585-.768-4.736-2.048l-.513.512c1.28,1.152,2.177,2.816,2.177,4.736v19.201c0,1.92-.896,3.712-2.048,4.992l.384.384c1.151-1.28,2.815-2.176,4.736-2.176h18.944c3.456,0,6.4,2.816,6.4,6.4s-2.944,6.4-6.4,6.4h-18.944c-1.921,0-3.585-.768-4.736-2.048l-.513.512c1.28,1.152,2.177,2.816,2.177,4.736v19.201c0,1.92-.896,3.712-2.048,4.993l.384.384c1.151-1.28,2.815-2.176,4.736-2.176h28.417c3.456,0,6.4,2.816,6.4,6.4s-2.944,6.4-6.4,6.4h-37.89c-3.584,0-6.4-2.816-6.4-6.4V48.223c0-3.584,2.816-6.4,6.4-6.4h37.89Z" fill="#faf7f2"/>
    <path d="m753.03,41.823c3.456,0,6.4,2.816,6.4,6.4,0,1.664,1.408,3.2,3.072,3.2,3.456,0,6.4,2.816,6.4,6.4s-2.944,6.4-6.4,6.4c-3.584,0-6.4-2.816-6.4-6.4,0-1.792-1.28-3.2-3.072-3.2h-18.944c-1.792,0-3.072,1.536-3.072,3.2v19.201c0,1.664,1.408,3.2,3.072,3.2h18.944c3.456,0,6.4,2.816,6.4,6.4,0,1.664,1.408,3.2,3.072,3.2,3.456,0,6.4,2.816,6.4,6.4v19.201c0,3.584-2.944,6.4-6.4,6.4-1.792,0-3.072,1.536-3.072,3.2,0,3.584-2.944,6.4-6.4,6.4h-18.944c-3.585,0-6.4-2.816-6.4-6.4,0-1.792-1.28-3.2-3.072-3.2-3.584,0-6.4-2.816-6.4-6.4s2.816-6.4,6.4-6.4,6.4,2.816,6.4,6.4c0,1.665,1.408,3.2,3.072,3.2h18.944c1.664,0,3.072-1.536,3.072-3.2v-19.201c0-1.792-1.28-3.2-3.072-3.2h-18.944c-3.585,0-6.4-2.816-6.4-6.4,0-1.792-1.28-3.2-3.072-3.2-3.584,0-6.4-2.816-6.4-6.4v-19.201c0-3.584,2.816-6.4,6.4-6.4,1.664,0,3.072-1.536,3.072-3.2,0-3.584,2.815-6.4,6.4-6.4h18.944Z" fill="#faf7f2"/>
    <path d="m839.306,41.823c3.456,0,6.4,2.816,6.4,6.4s-2.944,6.4-6.4,6.4h-9.473c-1.92,0-3.584-.768-4.736-2.048l-.512.512c1.28,1.152,2.176,2.816,2.176,4.736v67.203c0,3.584-2.815,6.4-6.4,6.4s-6.399-2.816-6.399-6.4V57.824c0-1.92.896-3.712,2.176-4.864l-.384-.384c-1.28,1.152-2.944,2.048-4.864,2.048h-9.473c-3.584,0-6.4-2.816-6.4-6.4s2.816-6.4,6.4-6.4h37.89Z" fill="#faf7f2"/>
    <path d="m522.619,157.939c3.456,0,6.4,2.816,6.4,6.4,0,1.664,1.408,3.2,3.072,3.2,3.456,0,6.4,2.816,6.4,6.4v19.201c0,3.584-2.944,6.4-6.4,6.4-1.792,0-3.072,1.536-3.072,3.2s1.408,3.2,3.072,3.2c3.456,0,6.4,2.816,6.4,6.4v19.201c0,3.584-2.944,6.4-6.4,6.4-1.792,0-3.072,1.536-3.072,3.2,0,3.584-2.944,6.4-6.4,6.4h-28.417c-3.584,0-6.4-2.816-6.4-6.4v-76.804c0-3.584,2.816-6.4,6.4-6.4h28.417Zm3.072,16c0-1.792-1.28-3.2-3.072-3.2h-18.944c-1.921,0-3.585-.768-4.736-2.048l-.513.512c1.28,1.152,2.177,2.816,2.177,4.736v19.201c0,1.92-.896,3.584-2.048,4.864l.384.384c1.151-1.28,2.815-2.048,4.736-2.048h18.944c1.664,0,3.072-1.536,3.072-3.2v-19.201Zm0,38.402c0-1.792-1.28-3.2-3.072-3.2h-18.944c-1.921,0-3.585-.768-4.736-2.048l-.513.512c1.28,1.152,2.177,2.816,2.177,4.736v19.201c0,1.92-.896,3.584-2.048,4.864l.384.384c1.151-1.28,2.815-2.048,4.736-2.048h18.944c1.664,0,3.072-1.536,3.072-3.2v-19.201Z" fill="#faf7f2"/>
    <path d="m599.422,157.939c3.456,0,6.4,2.816,6.4,6.4,0,1.664,1.408,3.2,3.072,3.2,3.456,0,6.4,2.816,6.4,6.4v57.603c0,3.584-2.944,6.4-6.4,6.4-1.792,0-3.072,1.536-3.072,3.2,0,3.584-2.944,6.4-6.4,6.4h-18.944c-3.585,0-6.4-2.816-6.4-6.4,0-1.792-1.28-3.2-3.072-3.2-3.584,0-6.4-2.816-6.4-6.4v-57.603c0-3.584,2.816-6.4,6.4-6.4,1.664,0,3.072-1.536,3.072-3.2,0-3.584,2.815-6.4,6.4-6.4h18.944Zm0,76.803c1.664,0,3.072-1.536,3.072-3.2v-57.603c0-1.792-1.28-3.2-3.072-3.2h-18.944c-1.792,0-3.072,1.536-3.072,3.2v57.603c0,1.664,1.408,3.2,3.072,3.2h18.944Z" fill="#faf7f2"/>
    <path d="m654.21,164.339v67.203c0,1.664,1.408,3.2,3.072,3.2h18.944c1.664,0,3.072-1.536,3.072-3.2v-67.203c0-3.584,2.816-6.4,6.4-6.4,3.456,0,6.4,2.816,6.4,6.4v67.203c0,3.584-2.944,6.4-6.4,6.4-1.792,0-3.072,1.536-3.072,3.2,0,3.584-2.944,6.4-6.4,6.4h-18.944c-3.585,0-6.4-2.816-6.4-6.4,0-1.792-1.28-3.2-3.072-3.2-3.584,0-6.4-2.816-6.4-6.4v-67.203c0-3.584,2.816-6.4,6.4-6.4s6.4,2.816,6.4,6.4Z" fill="#faf7f2"/>
    <path d="m731.013,164.339c0,1.92-.896,3.712-2.048,4.993l.384.384c1.151-1.28,2.944-2.176,4.736-2.176,1.664,0,3.2.64,4.352,1.664l19.329,19.585.512-.512c-1.279-1.152-2.176-2.816-2.176-4.736v-19.201c0-3.584,2.816-6.4,6.4-6.4,3.456,0,6.4,2.816,6.4,6.4v76.804c0,3.584-2.944,6.4-6.4,6.4-3.584,0-6.4-2.816-6.4-6.4v-38.402c0-1.92,1.024-3.712,2.305-4.864l-.513-.512c-1.152,1.408-2.944,2.176-4.864,2.176-1.792,0-3.456-.768-4.608-1.92l-19.072-19.329-.513.512c1.28,1.152,2.177,2.816,2.177,4.736v57.603c0,3.584-2.816,6.4-6.4,6.4s-6.4-2.816-6.4-6.4v-76.804c0-3.584,2.816-6.4,6.4-6.4s6.4,2.816,6.4,6.4Z" fill="#faf7f2"/>
    <path d="m829.834,157.939c3.456,0,6.4,2.816,6.4,6.4,0,1.664,1.408,3.2,3.072,3.2,3.456,0,6.4,2.816,6.4,6.4v57.603c0,3.584-2.944,6.4-6.4,6.4-1.792,0-3.072,1.536-3.072,3.2,0,3.584-2.944,6.4-6.4,6.4h-28.417c-3.584,0-6.4-2.816-6.4-6.4v-76.804c0-3.584,2.816-6.4,6.4-6.4h28.417Zm3.072,16c0-1.792-1.28-3.2-3.072-3.2h-18.944c-1.921,0-3.585-.768-4.736-2.048l-.513.512c1.28,1.152,2.177,2.816,2.177,4.736v57.603c0,1.92-.896,3.712-2.048,4.993l.384.384c1.151-1.28,2.815-2.176,4.736-2.176h18.944c1.664,0,3.072-1.536,3.072-3.2v-57.603Z" fill="#faf7f2"/>
  </g>
  <path d="m462.909,133.553c.79-.958,1.223-2.162,1.223-3.404V54.243c0-2.953-1.41-5.739-3.776-7.501-24.486-18.158-36.015-26.735-60.501-44.909-2.366-1.745-5.437-2.283-8.257-1.444l-126.923,38.382c-6.798,2.056-13.183,5.289-18.868,9.545-.63.471-1.246.933-1.832,1.374-2.83,2.125-6.591,2.541-9.818,1.089h0c-7.461-3.356-15.555-5.072-23.736-5.031L3.893,46.775c-2.148.017-3.893,1.762-3.893,3.927v260.495c0,2.165,1.762,3.91,3.927,3.91l142.448-.084c2.165,0,3.91,1.745,3.91,3.91v34.085c0,1.225,1.276,2.031,2.383,1.51l12.973-6.125c1.058-.487,2.283-.487,3.34,0l12.973,6.125c1.108.52,2.383-.285,2.383-1.51v-34.102c0-2.165,1.745-3.91,3.91-3.91l48.232-.034c3.726,0,7.452-.537,11.027-1.628l214.796-64.712c1.092-.319,1.83-1.326,1.83-2.45v-96.565c0-1.283-.46-2.524-1.296-3.497l-2.33-2.712c-1.678-1.981-1.712-4.884-.05-6.881l2.453-2.973Zm-245.796,152.52c0,2.165-1.745,3.927-3.91,3.927l-184.287.101c-2.165,0-3.91-1.762-3.91-3.927V75.691c0-2.149,1.745-3.91,3.91-3.91l184.269-.101c2.165,0,3.928,1.763,3.928,3.91v210.484ZM397.624,40.935c0-3.222,3.658-5.068,6.243-3.138,8.089,6.008,14.668,10.892,23.059,17.118,2.55,1.896,1.896,5.907-1.159,6.864l-23.058,7.3c-2.517.806-5.085-1.074-5.085-3.726v-24.418Zm41.62,87.553c0,1.712-1.124,3.239-2.769,3.742l-103.715,31.433c-5.236,1.595-8.811,6.445-8.811,11.932.017,7.048,5.79,12.419,12.402,12.419,1.191,0,2.417-.184,3.642-.554l94.199-28.547c2.517-.755,5.052,1.124,5.052,3.742v64.041c0,1.729-1.141,3.256-2.786,3.742l-164.433,49.105c-2.517.755-5.035-1.124-5.035-3.742V66.964c0-1.711,1.124-3.238,2.786-3.742l97.908-29.603c2.517-.756,5.052,1.124,5.052,3.742v61.96c0,2.652,2.567,4.532,5.102,3.725l56.321-17.822c2.517-.806,5.085,1.073,5.085,3.725v39.539Z" fill="#e66a3c"/>
</svg>