<?xml version="1.0" encoding="UTF-8"?>
<svg id="Layer_1" data-name="Layer 1" xmlns="http://www.w3.org/2000/svg" viewBox="0 0 966.1 448.04">
  <defs>
    <style>
      .cls-1 {
        fill: #fff;
      }

      .cls-2 {
        fill: #faf7f2;
      }

      .cls-3 {
        fill: #e66a3c;
      }
    </style>
  </defs>
  <path class="cls-3" d="m538.24.06l-253.63,53.91c-.2.04-.4.06-.6.06H2.91c-1.61,0-2.91,1.3-2.91,2.91v388.18c0,1.61,1.3,2.91,2.91,2.91h281.09c.2,0,.41-.02.6-.06l253.63-53.91c.2-.04.4-.06.6-.06h424.35c1.61,0,2.91-1.3,2.91-2.91V2.91c0-1.61-1.3-2.91-2.91-2.91h-424.35c-.2,0-.41.02-.6.06Z"/>
  <path class="cls-1" d="m458.58,220.52c.69-.82,1.07-1.84,1.07-2.81v-69.1c0-.97-.38-1.82-1.07-2.36l-23.7-18.66h0s-18.58-14.64-18.58-14.64h0l-23.69-18.67c-.69-.54-1.62-.73-2.59-.52l-110.32,23.45h0s-8.64,1.84-8.64,1.84c-3.87.82-7.72,1.9-9.84,4.97-.42.59-1.26.73-1.85.31-1.91-1.36-6.47-3.62-15.25-3.33-14.55.5-32.64.61-32.64.61H66.87c-2.02,0-3.66,1.64-3.66,3.67v246.65c0,2.03,1.64,3.66,3.66,3.66h97.99c2.02,0,3.66,1.64,3.66,3.66v28.04l12.39-7.32,12.39,7.32v-28.03c0-2.03,1.64-3.67,3.67-3.67h39.7l20.35.04c2.62,0,5.24-.24,7.83-.74.31-.06.63-.12.94-.18l40.03-8.51,150.19-31.93c2.02-.43,3.66-2.42,3.66-4.43v-92.3c0-.97-.38-1.81-1.07-2.36l-4.74-3.73c-1.43-1.13-1.43-3.43,0-5.17l4.74-5.75Zm-67.07-83.2c0-3.26,3.94-5.73,6.24-3.92l20.61,16.23c2.31,1.81.68,6.1-2.58,6.79l-20.61,4.38c-2.03.43-3.66-.86-3.66-2.88v-20.6Zm-131.06-9.19h0v.26-.02s0-.24,0-.24Zm-27.46,222.69H91.65c-2.03,0-3.66-1.64-3.66-3.66v-197.11c0-2.02,1.63-3.66,3.66-3.66h141.35c2.02,0,3.66,1.64,3.66,3.66v197.11c0,2.02-1.64,3.66-3.66,3.66Zm201.88-133.98c0,2.03-1.64,4.01-3.66,4.44l-97.99,20.82c-2.02.43-3.66,2.41-3.66,4.43v17.47c0,2.02,1.64,3.31,3.66,2.88l97.99-20.83c2.02-.43,3.66.86,3.66,2.88v60.83c0,2.02-1.64,4.01-3.66,4.43l-141.36,30.05c-2.02.43-3.66-.86-3.66-2.88v-197.1c0-2.02,1.64-4.01,3.66-4.43l73.21-15.57c2.02-.43,3.66.86,3.66,2.88v60.82c0,2.02,1.64,3.31,3.66,2.88l60.83-12.93c2.02-.44,3.66.85,3.66,2.88v36.04Z"/>
  <g>
    <path class="cls-2" d="m494.99,179.61c2.2,0,3.77,1.73,3.77,3.92,0,4.4,3.45,7.85,7.85,7.85h11.62c4.24,0,7.85-3.45,7.85-7.85,0-2.04,1.57-3.92,3.77-3.92s3.77,1.73,3.77,3.92c0,4.4,3.45,7.85,7.85,7.85s7.85-3.45,7.85-7.85-3.61-7.85-7.85-7.85c-2.04,0-3.77-1.89-3.77-3.93s1.57-3.92,3.77-3.92c4.24,0,7.85-3.45,7.85-7.85v-58.86c0-4.4-3.61-7.85-7.85-7.85-2.04,0-3.77-1.88-3.77-3.92,0-4.4-3.61-7.85-7.85-7.85h-23.23c-4.39,0-7.85,3.45-7.85,7.85,0,2.04-1.73,3.92-3.77,3.92-4.4,0-7.85,3.45-7.85,7.85v70.64c0,4.4,3.45,7.85,7.85,7.85Zm7.85-78.49c0-2.04,1.57-3.92,3.77-3.92h23.23c2.2,0,3.77,1.73,3.77,3.92v58.86c0,2.04-1.73,3.93-3.77,3.93s-3.77-1.89-3.77-3.93c0-4.39-3.61-7.85-7.85-7.85s-7.85,3.45-7.85,7.85,3.45,7.85,7.85,7.85c2.2,0,3.77,1.73,3.77,3.92,0,2.04-1.73,3.93-3.77,3.93h-11.62c-2.04,0-3.77-1.89-3.77-3.93v-70.64Z"/>
    <path class="cls-2" d="m589.17,179.61c2.2,0,3.77,1.73,3.77,3.92,0,4.4,3.45,7.85,7.85,7.85h23.23c4.24,0,7.85-3.45,7.85-7.85,0-2.04,1.57-3.92,3.77-3.92,4.24,0,7.85-3.45,7.85-7.85v-82.41c0-4.4-3.61-7.85-7.85-7.85s-7.85,3.45-7.85,7.85v82.41c0,2.04-1.73,3.93-3.77,3.93h-23.23c-2.04,0-3.77-1.89-3.77-3.93v-82.41c0-4.4-3.45-7.85-7.85-7.85s-7.85,3.45-7.85,7.85v82.41c0,4.4,3.45,7.85,7.85,7.85Z"/>
    <path class="cls-2" d="m683.35,191.38h46.46c4.24,0,7.85-3.45,7.85-7.85s-3.61-7.85-7.85-7.85h-34.85c-2.35,0-4.4,1.1-5.81,2.67l-.47-.47c1.41-1.57,2.51-3.77,2.51-6.12v-23.55c0-2.35-1.1-4.39-2.67-5.81l.63-.63c1.41,1.57,3.45,2.51,5.81,2.51h23.23c4.24,0,7.85-3.45,7.85-7.85s-3.61-7.85-7.85-7.85h-23.23c-2.35,0-4.4,1.1-5.81,2.67l-.47-.47c1.41-1.57,2.51-3.77,2.51-6.12v-23.55c0-2.35-1.1-4.4-2.67-5.81l.63-.63c1.41,1.57,3.45,2.51,5.81,2.51h34.85c4.24,0,7.85-3.45,7.85-7.85s-3.61-7.85-7.85-7.85h-46.46c-4.4,0-7.85,3.45-7.85,7.85v94.18c0,4.4,3.45,7.85,7.85,7.85Z"/>
    <path class="cls-2" d="m812.38,175.68h-23.23c-2.04,0-3.77-1.89-3.77-3.93,0-4.39-3.45-7.85-7.85-7.85s-7.85,3.45-7.85,7.85,3.45,7.85,7.85,7.85c2.2,0,3.77,1.73,3.77,3.92,0,4.4,3.45,7.85,7.85,7.85h23.23c4.24,0,7.85-3.45,7.85-7.85,0-2.04,1.57-3.92,3.77-3.92,4.24,0,7.85-3.45,7.85-7.85v-23.55c0-4.39-3.61-7.85-7.85-7.85-2.04,0-3.77-1.89-3.77-3.93,0-4.39-3.61-7.85-7.85-7.85h-23.23c-2.04,0-3.77-1.89-3.77-3.93v-23.55c0-2.04,1.57-3.92,3.77-3.92h23.23c2.2,0,3.77,1.73,3.77,3.92,0,4.4,3.45,7.85,7.85,7.85s7.85-3.45,7.85-7.85-3.61-7.85-7.85-7.85c-2.04,0-3.77-1.88-3.77-3.92,0-4.4-3.61-7.85-7.85-7.85h-23.23c-4.4,0-7.85,3.45-7.85,7.85,0,2.04-1.73,3.92-3.77,3.92-4.4,0-7.85,3.45-7.85,7.85v23.55c0,4.4,3.45,7.85,7.85,7.85,2.2,0,3.77,1.73,3.77,3.92,0,4.4,3.45,7.85,7.85,7.85h23.23c2.2,0,3.77,1.73,3.77,3.92v23.55c0,2.04-1.73,3.93-3.77,3.93Z"/>
    <path class="cls-2" d="m871.71,97.2h11.62c2.35,0,4.4-1.1,5.96-2.51l.47.47c-1.57,1.41-2.67,3.61-2.67,5.96v82.41c0,4.4,3.45,7.85,7.85,7.85s7.85-3.45,7.85-7.85v-82.41c0-2.35-1.1-4.4-2.67-5.81l.63-.63c1.41,1.57,3.45,2.51,5.81,2.51h11.62c4.24,0,7.85-3.45,7.85-7.85s-3.61-7.85-7.85-7.85h-46.46c-4.4,0-7.85,3.45-7.85,7.85s3.45,7.85,7.85,7.85Z"/>
    <path class="cls-2" d="m494.99,333.77h34.85c4.24,0,7.85-3.45,7.85-7.85,0-2.04,1.57-3.92,3.77-3.92,4.24,0,7.85-3.45,7.85-7.85v-23.55c0-4.39-3.61-7.85-7.85-7.85-2.04,0-3.77-1.89-3.77-3.93s1.57-3.92,3.77-3.92c4.24,0,7.85-3.45,7.85-7.85v-23.55c0-4.4-3.61-7.85-7.85-7.85-2.04,0-3.77-1.88-3.77-3.92,0-4.4-3.61-7.85-7.85-7.85h-34.85c-4.4,0-7.85,3.45-7.85,7.85v94.18c0,4.4,3.45,7.85,7.85,7.85Zm5.81-96.7c1.41,1.57,3.45,2.51,5.81,2.51h23.23c2.2,0,3.77,1.73,3.77,3.92v23.55c0,2.04-1.73,3.93-3.77,3.93h-23.23c-2.35,0-4.39.94-5.81,2.51l-.47-.47c1.41-1.57,2.51-3.61,2.51-5.97v-23.55c0-2.35-1.1-4.4-2.67-5.81l.63-.63Zm0,47.09c1.41,1.57,3.45,2.51,5.81,2.51h23.23c2.2,0,3.77,1.73,3.77,3.92v23.55c0,2.04-1.73,3.93-3.77,3.93h-23.23c-2.35,0-4.39.94-5.81,2.51l-.47-.47c1.41-1.57,2.51-3.61,2.51-5.97v-23.55c0-2.35-1.1-4.39-2.67-5.81l.63-.63Z"/>
    <path class="cls-2" d="m589.17,321.99c2.2,0,3.77,1.73,3.77,3.92,0,4.4,3.45,7.85,7.85,7.85h23.23c4.24,0,7.85-3.45,7.85-7.85,0-2.04,1.57-3.92,3.77-3.92,4.24,0,7.85-3.45,7.85-7.85v-70.64c0-4.4-3.61-7.85-7.85-7.85-2.04,0-3.77-1.88-3.77-3.92,0-4.4-3.61-7.85-7.85-7.85h-23.23c-4.4,0-7.85,3.45-7.85,7.85,0,2.04-1.73,3.92-3.77,3.92-4.4,0-7.85,3.45-7.85,7.85v70.64c0,4.4,3.45,7.85,7.85,7.85Zm7.85-78.49c0-2.04,1.57-3.92,3.77-3.92h23.23c2.2,0,3.77,1.73,3.77,3.92v70.64c0,2.04-1.73,3.93-3.77,3.93h-23.23c-2.04,0-3.77-1.89-3.77-3.93v-70.64Z"/>
    <path class="cls-2" d="m683.35,321.99c2.2,0,3.77,1.73,3.77,3.92,0,4.4,3.45,7.85,7.85,7.85h23.23c4.24,0,7.85-3.45,7.85-7.85,0-2.04,1.57-3.92,3.77-3.92,4.24,0,7.85-3.45,7.85-7.85v-82.41c0-4.4-3.61-7.85-7.85-7.85s-7.85,3.45-7.85,7.85v82.41c0,2.04-1.73,3.93-3.77,3.93h-23.23c-2.04,0-3.77-1.89-3.77-3.93v-82.41c0-4.4-3.45-7.85-7.85-7.85s-7.85,3.45-7.85,7.85v82.41c0,4.4,3.45,7.85,7.85,7.85Z"/>
    <path class="cls-2" d="m777.53,333.77c4.4,0,7.85-3.45,7.85-7.85v-70.64c0-2.35-1.1-4.39-2.67-5.81l.63-.63,23.39,23.7c1.41,1.41,3.45,2.36,5.65,2.36,2.35,0,4.55-.94,5.96-2.67l.63.63c-1.57,1.41-2.83,3.61-2.83,5.96v47.09c0,4.4,3.45,7.85,7.85,7.85s7.85-3.45,7.85-7.85v-94.18c0-4.4-3.61-7.85-7.85-7.85s-7.85,3.45-7.85,7.85v23.55c0,2.36,1.1,4.4,2.67,5.81l-.63.63-23.7-24.02c-1.41-1.26-3.3-2.04-5.34-2.04-2.2,0-4.4,1.1-5.81,2.67l-.47-.47c1.41-1.57,2.51-3.77,2.51-6.12,0-4.4-3.45-7.85-7.85-7.85s-7.85,3.45-7.85,7.85v94.18c0,4.4,3.45,7.85,7.85,7.85Z"/>
    <path class="cls-2" d="m871.71,333.77h34.85c4.24,0,7.85-3.45,7.85-7.85,0-2.04,1.57-3.92,3.77-3.92,4.24,0,7.85-3.45,7.85-7.85v-70.64c0-4.4-3.61-7.85-7.85-7.85-2.04,0-3.77-1.88-3.77-3.92,0-4.4-3.61-7.85-7.85-7.85h-34.85c-4.4,0-7.85,3.45-7.85,7.85v94.18c0,4.4,3.45,7.85,7.85,7.85Zm5.81-96.7c1.41,1.57,3.45,2.51,5.81,2.51h23.23c2.2,0,3.77,1.73,3.77,3.92v70.64c0,2.04-1.73,3.93-3.77,3.93h-23.23c-2.35,0-4.4,1.1-5.81,2.67l-.47-.47c1.41-1.57,2.51-3.77,2.51-6.12v-70.64c0-2.35-1.1-4.4-2.67-5.81l.63-.63Z"/>
  </g>
</svg>