<?xml version="1.0" encoding="UTF-8"?>
<svg id="Layer_1" data-name="Layer 1" xmlns="http://www.w3.org/2000/svg" viewBox="0 0 182.26 232.59">
  <defs>
    <style>
      .cls-1 {
        fill: #e66a3c;
      }
    </style>
  </defs>
  <path class="cls-1" d="m159.48,38.94h0s-17.08-17.09-17.08-17.09h0L120.6.05c-.63-.63-1.49-.99-2.38-.99H3.36C1.51-.93,0,.57,0,2.43v226.79c0,1.86,1.51,3.36,3.36,3.36h175.54c1.86,0,3.36-1.51,3.36-3.36v-84.35c0-.89-.35-1.75-.98-2.38l-4.36-4.36c-1.31-1.31-1.31-3.44,0-4.76l4.36-4.36c.63-.63.98-1.49.98-2.38v-63.54c0-.89-.35-1.75-.99-2.38l-21.8-21.79Zm-3.36,85.43h-90.1c-1.86,0-3.36,1.51-3.36,3.36v16.06c0,1.86,1.51,3.36,3.36,3.36h90.1c1.86,0,3.36,1.51,3.36,3.36v55.93c0,1.86-1.51,3.36-3.36,3.36H26.15c-1.86,0-3.36-1.51-3.36-3.36V25.21c0-1.86,1.51-3.36,3.36-3.36h67.32c1.86,0,3.36,1.51,3.36,3.36v55.92c0,1.86,1.51,3.36,3.36,3.36h55.93c1.86,0,3.36,1.51,3.36,3.36v33.15c0,1.86-1.51,3.36-3.36,3.36Zm-36.51-66.02v-18.95c0-3,3.62-4.5,5.74-2.38l18.95,18.95c2.12,2.12.62,5.74-2.38,5.74h-18.95c-1.86,0-3.36-1.51-3.36-3.36Z"/>
</svg>