<?xml version="1.0" encoding="UTF-8"?>
<svg id="Layer_1" data-name="Layer 1" xmlns="http://www.w3.org/2000/svg" viewBox="0 0 182.26 262.66">
  <defs>
    <style>
      .cls-1 {
        fill: #e66a3c;
      }
    </style>
  </defs>
  <path class="cls-1" d="m159.48,0H3.36C1.51,0,0,1.51,0,3.36v226.8C0,232.02,1.51,233.52,3.36,233.52h90.1c1.86,0,3.36,1.51,3.36,3.36v25.78l11.39-6.74,11.39,6.74v-25.78c0-1.86,1.51-3.36,3.36-3.36h55.93c1.86,0,3.36-1.51,3.36-3.36V3.36c0-1.86-1.51-3.36-3.36-3.36h-19.42Zm0,207.38c0,1.86-1.51,3.36-3.36,3.36H26.15c-1.86,0-3.36-1.51-3.36-3.36V26.15c0-1.86,1.51-3.36,3.36-3.36h129.97c1.86,0,3.36,1.51,3.36,3.36v181.23Z"/>
</svg>