<svg width="447" height="266" viewBox="0 0 447 266" fill="none" xmlns="http://www.w3.org/2000/svg">
<path d="M446.478 265.02H0.530029V234.925H416.383V38.03H446.478V265.02Z" fill="#FAF7F2"/>
<path d="M65.619 0.823025C69.075 0.823025 72.019 3.63902 72.019 7.22302C72.019 8.88702 73.427 10.423 75.091 10.423C78.547 10.423 81.491 13.239 81.491 16.823V64.825C81.491 68.409 78.547 71.225 75.091 71.225C73.299 71.225 72.019 72.761 72.019 74.425C72.019 76.089 73.427 77.625 75.091 77.625C78.547 77.625 81.491 80.441 81.491 84.025C81.491 87.609 78.547 90.425 75.091 90.425C71.507 90.425 68.6909 87.609 68.6909 84.025C68.6909 82.233 67.411 80.825 65.619 80.825C63.827 80.825 62.547 82.361 62.547 84.025C62.547 87.609 59.6039 90.425 56.1469 90.425H46.675C43.09 90.425 40.275 87.609 40.275 84.025C40.275 82.233 38.995 80.825 37.203 80.825C33.619 80.825 30.803 78.009 30.803 74.425V16.822C30.803 13.238 33.619 10.422 37.203 10.422C38.867 10.422 40.275 8.88602 40.275 7.22202C40.275 3.63802 43.09 0.822021 46.675 0.822021H65.619V0.823025ZM62.547 64.826C62.547 66.49 63.955 68.026 65.619 68.026C67.283 68.026 68.6909 66.49 68.6909 64.826V16.824C68.6909 15.032 67.411 13.624 65.619 13.624H46.675C44.883 13.624 43.603 15.16 43.603 16.824V74.427C43.603 76.092 45.011 77.627 46.675 77.627H56.1469C57.8109 77.627 59.219 76.091 59.219 74.427C59.219 72.635 57.9399 71.227 56.1469 71.227C52.5629 71.227 49.748 68.411 49.748 64.827C49.748 61.243 52.5629 58.427 56.1469 58.427C59.6039 58.427 62.547 61.243 62.547 64.827V64.826Z" fill="#FAF7F2"/>
<path d="M120.406 7.223V74.426C120.406 76.091 121.814 77.626 123.478 77.626H142.422C144.086 77.626 145.494 76.09 145.494 74.426V7.223C145.494 3.639 148.31 0.822998 151.894 0.822998C155.35 0.822998 158.294 3.639 158.294 7.223V74.426C158.294 78.01 155.35 80.826 151.894 80.826C150.102 80.826 148.822 82.362 148.822 84.026C148.822 87.61 145.878 90.426 142.422 90.426H123.478C119.893 90.426 117.078 87.61 117.078 84.026C117.078 82.234 115.798 80.826 114.006 80.826C110.422 80.826 107.606 78.01 107.606 74.426V7.223C107.606 3.639 110.422 0.822998 114.006 0.822998C117.59 0.822998 120.406 3.639 120.406 7.223Z" fill="#FAF7F2"/>
<path d="M228.699 0.822998C232.155 0.822998 235.099 3.639 235.099 7.223C235.099 10.807 232.155 13.623 228.699 13.623H200.282C198.361 13.623 196.697 12.855 195.546 11.575L195.033 12.087C196.313 13.239 197.21 14.903 197.21 16.823V36.024C197.21 37.944 196.314 39.736 195.162 41.016L195.546 41.4C196.697 40.12 198.361 39.224 200.282 39.224H219.226C222.682 39.224 225.626 42.04 225.626 45.624C225.626 49.208 222.682 52.024 219.226 52.024H200.282C198.361 52.024 196.697 51.256 195.546 49.976L195.033 50.488C196.313 51.64 197.21 53.304 197.21 55.224V74.425C197.21 76.345 196.314 78.137 195.162 79.418L195.546 79.802C196.697 78.522 198.361 77.626 200.282 77.626H228.699C232.155 77.626 235.099 80.442 235.099 84.026C235.099 87.61 232.155 90.426 228.699 90.426H190.809C187.225 90.426 184.409 87.61 184.409 84.026V7.223C184.409 3.639 187.225 0.822998 190.809 0.822998H228.699Z" fill="#FAF7F2"/>
<path d="M296.03 0.822998C299.486 0.822998 302.43 3.639 302.43 7.223C302.43 8.887 303.838 10.423 305.502 10.423C308.958 10.423 311.902 13.239 311.902 16.823C311.902 20.407 308.958 23.223 305.502 23.223C301.918 23.223 299.102 20.407 299.102 16.823C299.102 15.031 297.822 13.623 296.03 13.623H277.086C275.294 13.623 274.014 15.159 274.014 16.823V36.024C274.014 37.688 275.422 39.224 277.086 39.224H296.03C299.486 39.224 302.43 42.04 302.43 45.624C302.43 47.288 303.838 48.824 305.502 48.824C308.958 48.824 311.902 51.64 311.902 55.224V74.425C311.902 78.009 308.958 80.825 305.502 80.825C303.71 80.825 302.43 82.361 302.43 84.025C302.43 87.609 299.486 90.425 296.03 90.425H277.086C273.501 90.425 270.686 87.609 270.686 84.025C270.686 82.233 269.406 80.825 267.614 80.825C264.03 80.825 261.214 78.009 261.214 74.425C261.214 70.841 264.03 68.025 267.614 68.025C271.198 68.025 274.014 70.841 274.014 74.425C274.014 76.09 275.422 77.625 277.086 77.625H296.03C297.694 77.625 299.102 76.089 299.102 74.425V55.224C299.102 53.432 297.822 52.024 296.03 52.024H277.086C273.501 52.024 270.686 49.208 270.686 45.624C270.686 43.832 269.406 42.424 267.614 42.424C264.03 42.424 261.214 39.608 261.214 36.024V16.823C261.214 13.239 264.03 10.423 267.614 10.423C269.278 10.423 270.686 8.887 270.686 7.223C270.686 3.639 273.501 0.822998 277.086 0.822998H296.03Z" fill="#FAF7F2"/>
<path d="M382.306 0.822998C385.762 0.822998 388.706 3.639 388.706 7.223C388.706 10.807 385.762 13.623 382.306 13.623H372.833C370.913 13.623 369.249 12.855 368.097 11.575L367.585 12.087C368.865 13.239 369.761 14.903 369.761 16.823V84.026C369.761 87.61 366.946 90.426 363.361 90.426C359.776 90.426 356.962 87.61 356.962 84.026V16.824C356.962 14.904 357.858 13.112 359.138 11.96L358.754 11.576C357.474 12.728 355.81 13.624 353.89 13.624H344.417C340.833 13.624 338.017 10.808 338.017 7.224C338.017 3.64 340.833 0.823997 344.417 0.823997H382.307L382.306 0.822998Z" fill="#FAF7F2"/>
<path d="M65.619 116.939C69.075 116.939 72.019 119.755 72.019 123.339C72.019 125.003 73.427 126.539 75.091 126.539C78.547 126.539 81.491 129.355 81.491 132.939V152.14C81.491 155.724 78.547 158.54 75.091 158.54C73.299 158.54 72.019 160.076 72.019 161.74C72.019 163.404 73.427 164.94 75.091 164.94C78.547 164.94 81.491 167.756 81.491 171.34V190.541C81.491 194.125 78.547 196.941 75.091 196.941C73.299 196.941 72.019 198.477 72.019 200.141C72.019 203.725 69.075 206.541 65.619 206.541H37.202C33.618 206.541 30.802 203.725 30.802 200.141V123.337C30.802 119.753 33.618 116.937 37.202 116.937H65.619V116.939ZM68.691 132.939C68.691 131.147 67.411 129.739 65.619 129.739H46.675C44.754 129.739 43.09 128.971 41.939 127.691L41.426 128.203C42.706 129.355 43.603 131.019 43.603 132.939V152.14C43.603 154.06 42.707 155.724 41.555 157.004L41.939 157.388C43.09 156.108 44.754 155.34 46.675 155.34H65.619C67.283 155.34 68.691 153.804 68.691 152.14V132.939ZM68.691 171.341C68.691 169.549 67.411 168.141 65.619 168.141H46.675C44.754 168.141 43.09 167.373 41.939 166.093L41.426 166.605C42.706 167.757 43.603 169.421 43.603 171.341V190.542C43.603 192.462 42.707 194.126 41.555 195.406L41.939 195.79C43.09 194.51 44.754 193.742 46.675 193.742H65.619C67.283 193.742 68.691 192.206 68.691 190.542V171.341Z" fill="#FAF7F2"/>
<path d="M142.422 116.939C145.878 116.939 148.822 119.755 148.822 123.339C148.822 125.003 150.23 126.539 151.894 126.539C155.35 126.539 158.294 129.355 158.294 132.939V190.542C158.294 194.126 155.35 196.942 151.894 196.942C150.102 196.942 148.822 198.478 148.822 200.142C148.822 203.726 145.878 206.542 142.422 206.542H123.478C119.893 206.542 117.078 203.726 117.078 200.142C117.078 198.35 115.798 196.942 114.006 196.942C110.422 196.942 107.606 194.126 107.606 190.542V132.939C107.606 129.355 110.422 126.539 114.006 126.539C115.67 126.539 117.078 125.003 117.078 123.339C117.078 119.755 119.893 116.939 123.478 116.939H142.422ZM142.422 193.742C144.086 193.742 145.494 192.206 145.494 190.542V132.939C145.494 131.147 144.214 129.739 142.422 129.739H123.478C121.686 129.739 120.406 131.275 120.406 132.939V190.542C120.406 192.206 121.814 193.742 123.478 193.742H142.422Z" fill="#FAF7F2"/>
<path d="M197.21 123.339V190.542C197.21 192.206 198.618 193.742 200.282 193.742H219.226C220.89 193.742 222.298 192.206 222.298 190.542V123.339C222.298 119.755 225.114 116.939 228.698 116.939C232.154 116.939 235.098 119.755 235.098 123.339V190.542C235.098 194.126 232.154 196.942 228.698 196.942C226.906 196.942 225.626 198.478 225.626 200.142C225.626 203.726 222.682 206.542 219.226 206.542H200.282C196.697 206.542 193.882 203.726 193.882 200.142C193.882 198.35 192.602 196.942 190.81 196.942C187.226 196.942 184.41 194.126 184.41 190.542V123.339C184.41 119.755 187.226 116.939 190.81 116.939C194.394 116.939 197.21 119.755 197.21 123.339Z" fill="#FAF7F2"/>
<path d="M274.013 123.339C274.013 125.259 273.117 127.051 271.965 128.332L272.349 128.716C273.5 127.436 275.293 126.54 277.085 126.54C278.749 126.54 280.285 127.18 281.437 128.204L300.766 147.789L301.278 147.277C299.999 146.125 299.102 144.461 299.102 142.541V123.34C299.102 119.756 301.918 116.94 305.502 116.94C308.958 116.94 311.902 119.756 311.902 123.34V200.144C311.902 203.728 308.958 206.544 305.502 206.544C301.918 206.544 299.102 203.728 299.102 200.144V161.742C299.102 159.822 300.126 158.03 301.407 156.878L300.894 156.366C299.742 157.774 297.95 158.542 296.03 158.542C294.238 158.542 292.574 157.774 291.422 156.622L272.35 137.293L271.837 137.805C273.117 138.957 274.014 140.621 274.014 142.541V200.144C274.014 203.728 271.198 206.544 267.614 206.544C264.03 206.544 261.214 203.728 261.214 200.144V123.34C261.214 119.756 264.03 116.94 267.614 116.94C271.198 116.94 274.014 119.756 274.014 123.34L274.013 123.339Z" fill="#FAF7F2"/>
<path d="M372.834 116.939C376.29 116.939 379.234 119.755 379.234 123.339C379.234 125.003 380.642 126.539 382.306 126.539C385.762 126.539 388.706 129.355 388.706 132.939V190.542C388.706 194.126 385.762 196.942 382.306 196.942C380.514 196.942 379.234 198.478 379.234 200.142C379.234 203.726 376.29 206.542 372.834 206.542H344.417C340.833 206.542 338.017 203.726 338.017 200.142V123.338C338.017 119.754 340.833 116.938 344.417 116.938L372.834 116.939ZM375.906 132.939C375.906 131.147 374.626 129.739 372.834 129.739H353.89C351.969 129.739 350.305 128.971 349.154 127.691L348.641 128.203C349.921 129.355 350.818 131.019 350.818 132.939V190.542C350.818 192.462 349.922 194.254 348.77 195.535L349.154 195.919C350.305 194.639 351.969 193.743 353.89 193.743H372.834C374.498 193.743 375.906 192.207 375.906 190.543V132.94V132.939Z" fill="#FAF7F2"/>
</svg>
