<?xml version="1.0" encoding="UTF-8"?>
<svg id="Layer_1" data-name="Layer 1" xmlns="http://www.w3.org/2000/svg" viewBox="0 0 407.81 323.34">
  <defs>
    <style>
      .cls-1 {
        fill: #e66a3c;
      }
    </style>
  </defs>
  <path class="cls-1" d="m203.37,35.51v.27s.01-.27.01-.27h-.01Z"/>
  <path class="cls-1" d="m407.65,130.78c.71-.85,1.1-1.9,1.1-2.9V56.63c0-1-.39-1.88-1.1-2.43l-24.44-19.24h0s-19.16-15.09-19.16-15.09h-.01L339.61.62c-.71-.56-1.67-.75-2.67-.54l-113.75,24.18h0s-8.91,1.9-8.91,1.9c-3.99.85-7.96,1.96-10.15,5.12-.43.61-1.3.75-1.91.32-1.97-1.4-6.67-3.73-15.72-3.43-15,.52-33.65.63-33.65.63H3.77c-2.08,0-3.77,1.69-3.77,3.78v254.31c0,2.09,1.69,3.77,3.77,3.77h101.03c2.08,0,3.77,1.69,3.77,3.77v28.91l12.78-7.55,12.77,7.55v-28.9c0-2.09,1.69-3.78,3.78-3.78h40.93l20.98.04c2.7,0,5.4-.25,8.07-.76.32-.06.65-.12.97-.19l41.27-8.77,154.86-32.92c2.08-.44,3.77-2.49,3.77-4.57v-95.17c0-1-.39-1.87-1.1-2.43l-4.89-3.85c-1.47-1.16-1.47-3.54,0-5.33l4.89-5.93Zm-69.15-85.79c0-3.36,4.06-5.91,6.43-4.04l21.25,16.73c2.38,1.87.7,6.29-2.66,7l-21.25,4.52c-2.09.44-3.77-.89-3.77-2.97v-21.24Zm-135.13-9.48h.01v.27-.02s-.01-.25-.01-.25Zm-28.31,229.61H29.32c-2.09,0-3.77-1.69-3.77-3.77V58.12c0-2.08,1.68-3.77,3.77-3.77h145.74c2.08,0,3.77,1.69,3.77,3.77v203.23c0,2.08-1.69,3.77-3.77,3.77Zm208.15-138.14c0,2.09-1.69,4.13-3.77,4.58l-101.04,21.47c-2.08.44-3.77,2.49-3.77,4.57v18.01c0,2.08,1.69,3.41,3.77,2.97l101.04-21.48c2.08-.44,3.77.89,3.77,2.97v62.72c0,2.08-1.69,4.13-3.77,4.57l-145.75,30.98c-2.08.44-3.77-.89-3.77-2.97V52.15c0-2.08,1.69-4.13,3.77-4.57l75.49-16.05c2.08-.44,3.77.89,3.77,2.97v62.71c0,2.08,1.69,3.41,3.77,2.97l62.72-13.33c2.08-.45,3.77.88,3.77,2.97v37.16Z"/>
  <polygon class="cls-1" points="203.38 35.51 203.38 35.78 203.37 35.76 203.37 35.51 203.38 35.51"/>
  <polygon class="cls-1" points="203.38 35.51 203.38 35.78 203.37 35.76 203.37 35.51 203.38 35.51"/>
</svg>